PathFileType	4	(X/Y/Z)	./resultDataOpenSim/trcMotMarkerGrf/sub06/qtm-05-06.trc
DataRate	CameraRate	NumFrames	NumMarkers	Units	OrigDataRate	OrigDataStartFrame	OrigNumFrames
250.000000	250.000000	14	24	m	250.000000	1	521
Frame#	Time	L.Toe.Tip			R.Toe.Tip			L.Ankle.Lat			R.Ankle.Lat			L.Ankle.Med			R.Ankle.Med			L.Heel			R.Heel			L.Knee.Lat			R.Knee.Lat			L.Knee.Med			R.Knee.Med			L.Thigh.Upper			R.Thigh.Upper			L.ASIS			R.ASIS			V.Sacral			L.Acromium			R.Acromium			C7			L.Elbow			R.Elbow			L.Wrist.Lat			R.Wrist.Lat
		X1	Y1	Z1	X2	Y2	Z2	X3	Y3	Z3	X4	Y4	Z4	X5	Y5	Z5	X6	Y6	Z6	X7	Y7	Z7	X8	Y8	Z8	X9	Y9	Z9	X10	Y10	Z10	X11	Y11	Z11	X12	Y12	Z12	X13	Y13	Z13	X14	Y14	Z14	X15	Y15	Z15	X16	Y16	Z16	X17	Y17	Z17	X18	Y18	Z18	X19	Y19	Z19	X20	Y20	Z20	X21	Y21	Z21	X22	Y22	Z22	X23	Y23	Z23	X24	Y24	Z24

1	0	-1.571329	0.032420894	-0.061374221	-1.0667767	0.081426587	0.15021306	-1.6893916	0.076627673	-0.074046026	-1.1991626	0.080182834	0.15055252	-1.6804337	0.088602716	0.010585302	-1.1763893	0.10785283	0.06857976	NaN	NaN	NaN	-1.2367993	0.047345226	0.075908582	-1.5371134	0.41621922	-0.093091454	-1.2478597	0.46884687	0.16125484	-1.5507262	0.41969274	0.026874135	-1.2559592	0.44839681	0.035173051	-1.453656	0.79578658	-0.16329578	-1.4354447	0.79494294	0.1874793	-1.3716425	0.83508554	-0.12252461	-1.3504791	0.84439931	0.12291095	-1.5358307	0.92090495	0.025540064	-1.380902	1.326761	-0.17643025	-1.3982684	1.3095542	0.18522618	-1.4647846	1.3601862	0.0023728792	-1.3752978	1.0057741	-0.25430554	NaN	NaN	NaN	-1.16632	0.87306002	-0.21789464	-1.4270326	0.80695674	0.27849634
2	0.004	-1.5711966	0.032420265	-0.061552783	-1.0493992	0.084424832	0.15012671	-1.6890367	0.077240237	-0.074420392	-1.1806941	0.080930334	0.15145049	-1.6796435	0.089235461	0.010172236	-1.1602871	0.10875676	0.068979907	NaN	NaN	NaN	-1.2192083	0.047041879	0.076531668	-1.5344584	0.41585567	-0.093285352	-1.2409678	0.46753861	0.1608708	-1.5485349	0.41932868	0.026734569	-1.2498741	0.44662281	0.034406903	-1.4485111	0.79408968	-0.16220324	-1.4296967	0.79329818	0.18750104	-1.3658653	0.83392059	-0.12269656	-1.3443346	0.84303143	0.12298085	-1.5314262	0.91901482	0.024600213	-1.3752801	1.32534	-0.17619872	-1.3929214	1.3080966	0.18543777	-1.4593406	1.358871	0.0024687993	-1.3678402	1.004397	-0.25415167	NaN	NaN	NaN	-1.1580268	0.87323492	-0.21652124	-1.4229879	0.80531044	0.27888801
3	0.008	-1.5709179	0.032463757	-0.061888777	-1.0322649	0.087691769	0.14982588	-1.6886822	0.077886345	-0.074813726	-1.1628594	0.081692933	0.15216843	-1.6787471	0.089959864	0.009693869	-1.1443607	0.1098316	0.069328679	NaN	NaN	NaN	-1.2018724	0.046817884	0.077074835	-1.5316982	0.41549887	-0.093516409	-1.2343854	0.46611304	0.16041031	-1.5460663	0.41891861	0.026566368	-1.2437992	0.44482717	0.033622923	-1.4434565	0.79263327	-0.16118845	-1.4240185	0.79159751	0.18746523	-1.3600495	0.83271755	-0.12284903	-1.3381239	0.84164233	0.12304583	-1.5269007	0.91724652	0.024047027	-1.3696482	1.323901	-0.1759682	-1.387563	1.3066398	0.18566347	-1.453876	1.3575439	0.0025905975	-1.3603876	1.0029977	-0.25395847	NaN	NaN	NaN	-1.1497823	0.87338235	-0.21516312	-1.4189092	0.80366697	0.27929095
4	0.012	-1.5705202	0.032554509	-0.062355163	-1.0154695	0.091460146	0.14912813	-1.6883246	0.078581398	-0.07523357	-1.1459647	0.082490186	0.15261809	-1.677805	0.090791969	0.009153649	-1.1287661	0.11114239	0.069570432	NaN	NaN	NaN	-1.1849378	0.04671807	0.077493458	-1.5287876	0.41514546	-0.093787828	-1.2284231	0.4644879	0.15980917	-1.5433329	0.41844801	0.026361238	-1.2377335	0.44300339	0.032834624	-1.4383983	0.79138663	-0.16044231	-1.4183397	0.78984668	0.18738157	-1.3541842	0.831465	-0.12292873	-1.3318261	0.84023061	0.1230918	-1.5218902	0.91568698	0.024168099	-1.363991	1.3224389	-0.17574489	-1.3821887	1.3051801	0.18591234	-1.4483712	1.3561973	0.0027580697	-1.352941	1.001575	-0.25372933	NaN	NaN	NaN	-1.1415966	0.87348465	-0.21381875	-1.4147803	0.80202682	0.27972204
5	0.016	-1.570213	0.032651515	-0.062735844	-0.99907769	0.095801358	0.14802132	-1.6879998	0.079318298	-0.07566226	-1.1299876	0.083359196	0.15280725	-1.6770404	0.091663841	0.0086182889	-1.1136798	0.11263405	0.069652906	NaN	NaN	NaN	-1.1684696	0.046743486	0.077772736	-1.5257404	0.41478314	-0.094080303	-1.2227954	0.46277282	0.15916207	-1.5404122	0.41795616	0.026120063	-1.2316675	0.44117198	0.032072005	-1.4332023	0.79020339	-0.16003899	-1.4123202	0.78813133	0.18735613	-1.3482926	0.83017149	-0.1229141	-1.325461	0.83881069	0.12310777	-1.5162357	0.91428711	0.024807162	-1.3583048	1.3209641	-0.17552978	-1.3768078	1.3037177	0.18618729	-1.4428243	1.3548411	0.0029782525	-1.3455171	1.000145	-0.25349465	NaN	NaN	NaN	-1.1334813	0.87353299	-0.21247344	-1.4105977	0.80038606	0.28019232
6	0.02	-1.5701518	0.032712039	-0.062868919	-0.98327124	0.1005093	0.14673897	-1.6877637	0.080082912	-0.076075488	-1.1147615	0.084334295	0.152774	-1.6766249	0.092515335	0.0081434223	-1.0992113	0.11421329	0.069547907	NaN	NaN	NaN	-1.1524823	0.046867836	0.077911307	-1.5225785	0.41440388	-0.094378456	-1.2167096	0.46120839	0.15867962	-1.5372659	0.41750502	0.025843836	-1.2255725	0.43936754	0.031335779	-1.4278398	0.78901618	-0.15984919	-1.4052711	0.78660791	0.18758422	-1.3423915	0.82883848	-0.1228425	-1.3190442	0.8373978	0.12309907	-1.5101648	0.91292702	0.025554641	-1.3525928	1.3194875	-0.17530783	-1.3714235	1.3022567	0.18649014	-1.4372416	1.3534919	0.0032356081	-1.3381266	0.99871396	-0.25325278	NaN	NaN	NaN	-1.1254518	0.87352347	-0.21111305	-1.4063532	0.79873807	0.28069573
7	0.024	-1.5702595	0.032729977	-0.062824381	-0.96832566	0.10519706	0.14557133	-1.6875894	0.080876241	-0.076478679	-1.1001762	0.085406425	0.1525335	-1.6764838	0.093366078	0.0077149607	-1.0853615	0.1158078	0.069262987	NaN	NaN	NaN	-1.1370167	0.047060656	0.077897396	-1.5193094	0.41401267	-0.094681706	-1.2098669	0.45989593	0.15842704	-1.533886	0.41711516	0.025541719	-1.2194134	0.43761934	0.030594613	-1.4223586	0.78781979	-0.15971562	-1.3966872	0.78539238	0.18820948	-1.3364844	0.82745773	-0.12277152	-1.3125876	0.83599833	0.12307992	-1.503962	0.91155511	0.02619852	-1.3468618	1.3180139	-0.17505776	-1.3660338	1.3008017	0.18682283	-1.4316342	1.3521535	0.0034901453	-1.330762	0.99727105	-0.25294164	NaN	NaN	NaN	-1.1175107	0.87345803	-0.20974126	-1.4020473	0.7970836	0.28121672
8	0.028	-1.5703641	0.032726318	-0.062764496	-0.95439369	0.10957941	0.14461671	-1.6873506	0.081722316	-0.076908956	-1.0862178	0.086523889	0.15208292	-1.6763575	0.094272005	0.0072611917	-1.0720862	0.1173671	0.068824936	NaN	NaN	NaN	-1.1221603	0.04730709	0.077688721	-1.5159299	0.41361894	-0.094993678	-1.2026966	0.45874135	0.15826821	-1.5303402	0.41675162	0.025229459	-1.2131637	0.43593861	0.02983103	-1.4168092	0.78661344	-0.15954856	-1.3871322	0.78437093	0.18910105	-1.3305736	0.82603125	-0.12275163	-1.3061028	0.83461171	0.12306247	-1.4977604	0.91018494	0.026751992	-1.3411114	1.3165451	-0.17476906	-1.3606372	1.2993564	0.18718497	-1.4260075	1.3508209	0.0037175699	-1.323407	0.9958063	-0.25249698	NaN	NaN	NaN	-1.1096436	0.87334349	-0.2083751	-1.3976933	0.79542597	0.28174781
9	0.032	-1.57039	0.03271998	-0.062760871	-0.94139805	0.11357035	0.14378695	-1.6869263	0.082642741	-0.07739995	-1.072905	0.087623033	0.1514406	-1.6760175	0.095259437	0.0067168539	-1.0593534	0.1188577	0.068257761	NaN	NaN	NaN	-1.1079854	0.047618144	0.077239589	-1.5124371	0.41322858	-0.09530943	-1.1956431	0.45762735	0.15806266	-1.5266964	0.41636996	0.02492127	-1.2068131	0.43432162	0.029067638	-1.4112163	0.7853906	-0.15931301	-1.3780199	0.78324077	0.18989954	-1.324663	0.82458843	-0.12280169	-1.2995905	0.8332427	0.12305479	-1.4915738	0.90884236	0.027292593	-1.3353318	1.3150849	-0.17445087	-1.3552315	1.2979258	0.18757514	-1.4203526	1.3494977	0.003942747	-1.31606	0.99433071	-0.25193391	NaN	NaN	NaN	-1.101839	0.87318761	-0.20702175	-1.3933073	0.79376566	0.28229264
10	0.036	-1.5703541	0.032717865	-0.062801738	-0.92915155	0.11713989	0.14297173	-1.6862706	0.083627529	-0.077948721	-1.0602338	0.088648441	0.15065771	-1.6754132	0.096329723	0.0060821256	-1.0471495	0.12026254	0.067581028	NaN	NaN	NaN	-1.0945142	0.04801141	0.076545227	-1.5088297	0.41284004	-0.095623272	-1.1887656	0.4565135	0.15778651	-1.522974	0.41595779	0.024620767	-1.2003592	0.43276811	0.02833378	-1.4055817	0.78415024	-0.15901302	-1.3701997	0.7818257	0.1903745	-1.3187503	0.82317569	-0.1228949	-1.2930372	0.83190201	0.12305915	-1.4853796	0.90753959	0.027870411	-1.3295144	1.3136381	-0.17412368	-1.3498132	1.2965155	0.18799457	-1.4146586	1.348194	0.0041933631	-1.3087381	0.99286874	-0.25132921	NaN	NaN	NaN	-1.0941041	0.87299543	-0.20567036	-1.3888965	0.79210759	0.28285528
11	0.04	-1.5702897	0.032718883	-0.062860667	-0.91751275	0.1202202	0.14213101	-1.685382	0.084652514	-0.078520559	-1.0481778	0.089554986	0.14978538	-1.6746907	0.097463632	0.005431753	-1.0354746	0.12156541	0.066815434	NaN	NaN	NaN	-1.0817512	0.048473646	0.075645019	-1.5051026	0.41244289	-0.095934838	-1.1819118	0.45541558	0.15748463	-1.5191289	0.41553197	0.024319412	-1.1937916	0.43129557	0.027625736	-1.3998967	0.7829052	-0.15867839	-1.3633821	0.78020878	0.19058783	-1.3128116	0.82182285	-0.12297265	-1.2864247	0.83059688	0.12307338	-1.4791679	0.90626174	0.0284814	-1.32366	1.3122103	-0.17379414	-1.3443789	1.2951285	0.18844739	-1.4089226	1.3469162	0.0044647936	-1.3014602	0.99143387	-0.2507313	NaN	NaN	NaN	-1.0864557	0.87276697	-0.20430863	-1.3844481	0.79046037	0.28343241
12	0.044	-1.5702151	0.032719307	-0.062922257	-0.90642889	0.12273834	0.14128082	-1.684274	0.085718396	-0.079088755	-1.0367174	0.09030543	0.14884206	-1.6741674	0.09859079	0.0048929651	-1.0243382	0.12273526	0.06597306	NaN	NaN	NaN	-1.0697072	0.048951337	0.074589542	-1.501249	0.41203184	-0.09624352	-1.1749451	0.45436302	0.15719133	-1.5151125	0.41510617	0.02401316	-1.1870983	0.4299335	0.026922903	-1.3941482	0.78167554	-0.15833948	-1.356905	0.77854976	0.19070721	-1.3067837	0.82052743	-0.12296009	-1.2797449	0.82932388	0.12309595	-1.4729447	0.90498562	0.029109423	-1.3177766	1.3108083	-0.17344238	-1.3389172	1.2937648	0.18893735	-1.403138	1.3456686	0.0047645651	-1.2942355	0.9900256	-0.25013183	NaN	NaN	NaN	-1.0789001	0.87249991	-0.20294076	-1.3799352	0.78882851	0.28401931
13	0.048	-1.5701356	0.032717544	-0.062981561	-0.89589884	0.12465954	0.14043531	-1.6830111	0.086847268	-0.079657618	-1.0258594	0.090869935	0.14781476	-1.6742927	0.099598374	0.0046274282	-1.0137618	0.12372859	0.065043905	NaN	NaN	NaN	-1.0583948	0.049373276	0.073410594	-1.497263	0.41161855	-0.096539685	-1.1678269	0.45336773	0.15690252	-1.5109263	0.4146714	0.023711839	-1.1802832	0.42871557	0.026222222	-1.3883231	0.78047445	-0.15800739	-1.3503829	0.77694021	0.19082926	-1.3005916	0.8192788	-0.12278678	-1.2730099	0.82807496	0.12312604	-1.4667141	0.90371565	0.029769477	-1.3118707	1.3094387	-0.17304372	-1.3334021	1.2924228	0.18946283	-1.397296	1.344454	0.0051272024	-1.2870652	0.98864419	-0.24950595	NaN	NaN	NaN	-1.0714274	0.87219306	-0.20158393	-1.3753418	0.78721484	0.28462034
14	0.052	-1.5700496	0.032715415	-0.063037037	-0.8859392	0.12599695	0.13956734	-1.681712	0.088051272	-0.080240433	-1.0156314	0.091225949	0.14668216	-1.6753823	0.10041558	0.0047419564	-1.0037828	0.12449984	0.064003416	NaN	NaN	NaN	-1.0478263	0.049673583	0.072122503	-1.4931318	0.41121556	-0.096798224	-1.1605909	0.45242134	0.15659412	-1.506596	0.41420779	0.023425848	-1.1733604	0.42768118	0.025532552	-1.3824171	0.77930326	-0.15768053	-1.3436888	0.77542506	0.19097859	-1.2942128	0.81807366	-0.12242656	-1.2662459	0.82684852	0.12315679	-1.4604415	0.90247877	0.030483912	-1.3059417	1.308104	-0.17259856	-1.3278095	1.2911021	0.19001693	-1.3913996	1.3432691	0.0055634058	-1.2799433	0.98729217	-0.24883039	NaN	NaN	NaN	-1.0640257	0.87184486	-0.20024898	-1.3706681	0.78562377	0.28524613
